PathFileType	4	(X/Y/Z)	10_1_39_p0_0-412_filt_butterworth.trc
DataRate	CameraRate	NumFrames	NumMarkers	Units	OrigDataRate	OrigDataStartFrame	OrigNumFrames
60.0	60.0	5	27	m	60.0	206	412
Frame#	Time	RHip			RKnee			RAnkle			RBigToe			RSmallToe			RHeel			LHip			LKnee			LAnkle			LBigToe			LSmallToe			LHeel			Neck			Head			Nose			RShoulder			RElbow			RWrist			RThumb			RIndex			RPinky			LShoulder			LElbow			LWrist			LThumb			LIndex			LPinky			
		X1	Y1	Z1	X2	Y2	Z2	X3	Y3	Z3	X4	Y4	Z4	X5	Y5	Z5	X6	Y6	Z6	X7	Y7	Z7	X8	Y8	Z8	X9	Y9	Z9	X10	Y10	Z10	X11	Y11	Z11	X12	Y12	Z12	X13	Y13	Z13	X14	Y14	Z14	X15	Y15	Z15	X16	Y16	Z16	X17	Y17	Z17	X18	Y18	Z18	X19	Y19	Z19	X20	Y20	Z20	X21	Y21	Z21	X22	Y22	Z22	X23	Y23	Z23	X24	Y24	Z24	X25	Y25	Z25	X26	Y26	Z26	X27	Y27	Z27	
206	3.433333333333333	0.30222705907856795	0.5300824782016944	0.9125034445602063	0.3124672016132929	0.6689241000075649	1.3890483968807885	0.3174779950105829	0.811368705614405	1.797704164239535	0.2785395449709563	0.6081694458224428	1.8524074000269828	0.33442467659407926	0.6456956325726902	1.8535903535929568	0.29041879031391404	0.9187539868640495	1.8737380426546058	0.07292091472716071	0.5171432310910452	0.9199310233061752	0.0788889551033797	0.6435094515329249	1.3740592938119067	0.0821952613346435	0.7740724828270682	1.7962476507237746	0.12251864974088408	0.5970854664323836	1.8579164293595527	0.05652334485735179	0.6205403280510207	1.8387118673701517	0.09363793345874412	0.8938731499994073	1.8592290630291237	0.1966130292890922	0.38692582853731705	0.3266067697001368	0.22171289313609369	0.278005738882549	0.10294637793113517	0.22839902329926318	0.22958109425855275	0.23245794194609593	0.36047855166234555	0.43393850549117063	0.43672576717216555	0.40427239565865897	0.5263503325093226	0.7221269748820698	0.43537369716789265	0.4882436445023299	0.9784147961091222	0.3713560432799558	0.4682185881693472	1.1148628292672704	0.40234239719883763	0.4597374025775526	1.1412084141051146	0.4280420136529218	0.5824187128156133	1.150528130141168	0.04503792140118661	0.39317325068424447	0.4149559391841788	-0.0311287065579582	0.46299381257857886	0.7070813964247216	-0.03166672636578682	0.4732901183576533	0.9610464513506736	0.018666296994585826	0.4383007885635113	1.0817154259532225	-2.4852239981294407e-05	0.42615195051416105	1.1028801741648957	-0.03929477273327657	0.49289911088192884	1.1061457363654907
207	3.45	0.30223381786065096	0.5300327645798961	0.9124732605816495	0.3124908380239226	0.668884796368409	1.3888590067264186	0.31895548846408134	0.8065880624584734	1.7981891172744533	0.2785407381406076	0.6082308203585878	1.852400954318227	0.3345402394237408	0.6457900745417011	1.8536562746038951	0.2903048228311424	0.9184080730225073	1.873213122446977	0.07305339624098803	0.5168625789325988	0.9208485156166935	0.07889210889296884	0.6434815443491021	1.374047598681174	0.08228295643178064	0.7744316370725182	1.7967634717571002	0.12259405666698343	0.5971732503687335	1.858927843180423	0.056508501586273206	0.6205550762683459	1.8392556681226073	0.09381715567267684	0.8937271629328883	1.859320018537821	0.19669421060422332	0.3871334759919631	0.3267070728748655	0.22172744037881742	0.2780473022531429	0.10295390579729577	0.2272099084112358	0.23257121604823902	0.2322251375534149	0.36047001538236745	0.4339320707495588	0.4367291881302954	0.4043675062745568	0.5260119275703524	0.7209019562816755	0.435378090512135	0.4882265179969391	0.9783998698180567	0.37135303532449127	0.46828271807242133	1.1149564840380886	0.40231502127333185	0.4598950135013925	1.1411912216803157	0.4280199224908438	0.5824019652059484	1.1504155947746422	0.04503730222526521	0.3931222015643814	0.4149626349272546	-0.0311320555502539	0.4630018438713045	0.7070895797907936	-0.0316398393834662	0.4732441931623492	0.9609503651652844	0.01859022933020623	0.4384912068983479	1.0818817430356282	-1.032703874084756e-05	0.42616626274692493	1.1028551520826457	-0.039678302705666475	0.4897467101842824	1.1052254863827073
208	3.466666666666667	0.30226047936429146	0.5303087670775929	0.9129874672749134	0.3125305362790652	0.6688150272117799	1.388475265214087	0.3207790183832974	0.8007239977250971	1.7990846542283023	0.2785619880443133	0.608321819191258	1.852496410844801	0.3347497263904926	0.6457500456308916	1.8537353255229898	0.29022431726970654	0.9176891476089976	1.871628080003982	0.07314815468827654	0.5166598176926281	0.9220546636855453	0.07890267589593075	0.6434609183312834	1.3740326307069093	0.08249786096144769	0.7753110748931266	1.7981054509396972	0.1225764224316141	0.5977379969338739	1.860239602766646	0.05656645194426909	0.6208980523358993	1.8406211709849973	0.09405936210845595	0.8939934023696017	1.8599307405237036	0.19676322449857753	0.3876814068871094	0.32754412831589547	0.22172809970712604	0.2780769606381186	0.10294685004875759	0.22569472150553752	0.23617028665379025	0.23283646010807163	0.3604738930879659	0.43391531405182737	0.436738669684476	0.4044468150124301	0.5257342651489487	0.7199410938821801	0.4354308200063505	0.4880550507116721	0.9780290060153545	0.37136162852645654	0.46827049887586314	1.1151325905033385	0.40221751142624174	0.4601244569729045	1.1411841117724506	0.4280160884319786	0.5823672502467286	1.150551452986834	0.0450394628635998	0.3930979412455885	0.41496714972375165	-0.03114245729135652	0.46297515661787236	0.7069853732487322	-0.03162101043963214	0.4732179867802233	0.960877328295448	0.01849074909975986	0.4386987765067863	1.0831510075151087	8.899087692958828e-06	0.4262059762142599	1.102852367716161	-0.04006026693467379	0.48658890752286554	1.1042168626610378
209	3.4833333333333334	0.30226886075919224	0.5309290916063268	0.9141630751508819	0.31257763091254526	0.6687228023386751	1.3879729445242255	0.3221905273583943	0.796232084212002	1.7990160312938088	0.278616831366139	0.6083650207462	1.8524997588710566	0.3349561849756597	0.6455277571230038	1.8537960407910177	0.2903768182168281	0.9170054194513731	1.869535561043783	0.0731759621300036	0.5166029574974076	0.9229861277983067	0.07892001159474857	0.6434456824709341	1.3740398132467462	0.08278430265509797	0.7764661769135045	1.7999078981181464	0.12252269884412577	0.5988795041612925	1.8616041741904077	0.05674023903890753	0.6217608632374945	1.842441492523374	0.09437151643584883	0.8948598068393776	1.8613722931294605	0.19680334976269853	0.38847002114878554	0.32973705803961983	0.22171625296565806	0.2780899558038742	0.10293550352374242	0.22457591692976966	0.23893107026796057	0.23403534503107346	0.36048060886223643	0.433910601403679	0.43675061512112706	0.4044893850823656	0.5255970936872836	0.7195120737980337	0.4355527704779344	0.4876692758740219	0.9770923642545248	0.3714079846426831	0.4681756506533151	1.1149964105220056	0.40208175456823425	0.4603742606651024	1.1413543396960195	0.42802375559679834	0.5823418410399511	1.1506455534726931	0.0450477741875293	0.3931088747385908	0.4149681190298685	-0.03115331365050081	0.4629234482813702	0.7068980910138153	-0.031620103887309035	0.473228100195531	0.9608663321450268	0.018363955272025684	0.4385818817129386	1.0842601765003232	2.022401536846374e-05	0.4261953180681081	1.1028408072438483	-0.04011599319808257	0.48603456165431796	1.1038204794681319
210	3.5	0.3022274780438522	0.5316688214412622	0.9156555060662597	0.3125344482872507	0.6687897759736614	1.3880802538840566	0.32281828820679254	0.7942749451339012	1.7982426113321026	0.27875272460995354	0.608224466176613	1.8520284410294883	0.33501755515961174	0.6453307029217767	1.8538106407089179	0.29079125688484525	0.9168182658401993	1.8680106538816297	0.07316632564103392	0.5166303401789303	0.9234059150018776	0.07893844696784907	0.6434318903553642	1.3740505438372652	0.08300718188157973	0.7773462415061976	1.801315115555816	0.12248229839358506	0.6002553336743051	1.8632842037909871	0.05697950534454052	0.6229044279153618	1.8438615928526763	0.09470720996987794	0.8960920126051513	1.8633112730528496	0.19683369091263303	0.3891116488568265	0.3323702368973692	0.22170272689656992	0.27809445091198987	0.10294248906491851	0.2241571678575331	0.24034296731159344	0.23511977424938427	0.36046904476986147	0.43397613502285876	0.4367573194402364	0.40450581476606434	0.5255610102763425	0.7194217366205734	0.4357087272600078	0.487176360147817	0.9758581880230943	0.37149876219907896	0.46800979027397416	1.1139699188248566	0.4019760834875674	0.46054456959280937	1.1415241031686223	0.428027047630527	0.5823624681232973	1.1506311123220185	0.045060785787548435	0.39312919218740555	0.4149665459904667	-0.031167051866041174	0.462873644684116	0.706857132127585	-0.03163732747552646	0.47327036780296966	0.9609129534289984	0.018275936534751198	0.43787107592905006	1.0836617520504404	1.4583548951623163e-05	0.426108185888339	1.1028041140329583	-0.03979687476231623	0.48861335749022317	1.104409887326682
